<?xml version="1.0" encoding="utf-8"?>
<!-- Generator: Adobe Illustrator 16.0.0, SVG Export Plug-In . SVG Version: 6.00 Build 0)  -->
<!DOCTYPE svg PUBLIC "-//W3C//DTD SVG 1.1//EN" "http://www.w3.org/Graphics/SVG/1.1/DTD/svg11.dtd">
<svg version="1.1" id="Layer_1" xmlns="http://www.w3.org/2000/svg" xmlns:xlink="http://www.w3.org/1999/xlink" x="0px" y="0px"
	 width="375px" height="667px" viewBox="0 0 375 667" enable-background="new 0 0 375 667" xml:space="preserve">
<g opacity="0.05">
	<path fill="#1B94BB" d="M291.875,202.387l7.847,6.891l11.353,33.267l20.271,7.992l17.665,6.951l16.264,6.393l4.783,14.692
		l-52.368-6.314L323.885,317c0.252,1.038,0.449,2.038,0.575,2.987l19.077,3.165l2.807,11.72l-20.916-2.536l-1.107,0.265
		l1.133,11.083l-1.982-0.145l-2.789-10.062l-3.186,0.758l-14.975,8.979l-2.595-10.879l17.384-10.713
		c-0.229-0.524-0.429-1.066-0.556-1.639l-16.432-44.375l-0.687,0.163l-47.259,29.202l-1.983-13.57l12.671-13.792l12.659-13.783
		l16.694-18.168l0.206-0.055l-4.721-32.179L291.875,202.387z"/>
	<path fill="#1B94BB" d="M324.58,338.685c0,0,0.277,0.585,0.566,1.996c0.275,1.658,0.541,3.535,0.945,6.477
		c0.725,5.572,1.485,13.885,0.617,24.489c-0.407,5.297-1.319,11.142-2.808,17.399c-0.189,0.783-0.384,1.574-0.576,2.372
		c-0.217,0.791-0.434,1.594-0.654,2.402c-0.427,1.618-0.953,3.245-1.467,4.907c-1.1,3.301-2.333,6.696-3.804,10.127
		c-5.8,13.741-14.88,28.271-27.482,41.687c-3.156,3.343-6.513,6.63-10.069,9.829c-3.565,3.182-7.358,6.249-11.325,9.217
		c-7.941,5.917-16.693,11.326-26.186,15.854c-18.934,9.146-40.775,14.796-63.463,15.87c-5.669,0.271-11.39,0.304-17.131-0.005
		l-2.151-0.128l-1.118-0.069l-1.059-0.087l-2.129-0.182l-2.197-0.254c-2.912-0.363-5.775-0.823-8.641-1.402
		c-11.445-2.284-22.596-6.126-33.402-10.886c-10.782-4.832-21.226-10.64-31.12-17.392c-4.97-3.343-9.775-6.958-14.444-10.771
		c-4.669-3.806-9.165-7.855-13.46-12.121c-8.579-8.546-16.382-17.979-22.94-28.259c-3.257-5.146-6.266-10.461-8.86-15.974
		c-2.596-5.504-4.857-11.168-6.757-16.932c-3.753-11.543-6.052-23.5-6.802-35.416c-0.772-11.918-0.061-23.774,1.874-35.185
		c0.444-2.862,1.047-5.677,1.625-8.486c0.339-1.392,0.677-2.779,1.014-4.164l0.256-1.039l0.061-0.26l0.087-0.319l0.135-0.494
		l0.541-1.98l0.268-0.989l0.305-1.035l0.61-2.067c0.407-1.382,0.853-2.694,1.274-4.04c0.441-1.331,0.918-2.646,1.376-3.964
		c0.485-1.31,0.972-2.612,1.457-3.915c3.974-10.373,8.903-20.1,14.422-29.108c11.094-18.006,24.83-32.91,39.289-44.319
		c7.27-5.668,14.742-10.437,22.169-14.356c7.419-3.938,14.867-6.869,22.002-9.081c7.143-2.211,14.032-3.562,20.435-4.289
		c3.199-0.394,6.291-0.556,9.229-0.682c2.95-0.054,5.756-0.03,8.415,0.133c10.638,0.572,18.753,2.627,24.127,4.27
		c1.349,0.397,2.522,0.815,3.533,1.165c1.018,0.34,1.862,0.655,2.538,0.924c1.35,0.526,2.046,0.798,2.046,0.798l-0.385,1.161
		c0,0-0.719-0.172-2.113-0.509c-0.691-0.171-1.554-0.384-2.588-0.589c-1.03-0.221-2.22-0.486-3.581-0.709
		c-5.41-0.996-13.458-2.062-23.615-1.667c-5.073,0.213-10.663,0.806-16.63,1.993c-2.982,0.604-6.062,1.322-9.202,2.259
		c-3.139,0.938-6.375,1.949-9.637,3.228c-3.267,1.259-6.58,2.697-9.916,4.328c-3.34,1.633-6.681,3.487-10.051,5.486
		c-6.724,4.022-13.448,8.839-19.932,14.482c-13.06,11.17-25.228,25.602-35.184,42.568c-5.003,8.468-9.395,17.601-13.108,27.226
		c-0.445,1.21-0.893,2.424-1.343,3.64c-0.419,1.227-0.862,2.449-1.266,3.688c-0.399,1.233-0.838,2.487-1.208,3.711l-0.566,1.845
		l-0.284,0.925l-0.277,0.985l-0.558,1.974l-0.138,0.495c-0.018,0.052-0.067,0.235-0.05,0.179l-0.063,0.239l-0.241,0.962
		c-0.326,1.278-0.651,2.56-0.978,3.843c-0.564,2.588-1.207,5.175-1.668,7.805c-4.039,20.946-3.585,43.524,2.792,65.106
		c6.291,21.563,17.797,42.114,33.133,59.642c3.828,4.384,7.897,8.571,12.161,12.564c4.266,3.991,8.776,7.715,13.426,11.245
		c9.348,6.985,19.38,13.053,29.893,17.852c10.511,4.773,21.506,8.365,32.621,10.121c1.384,0.247,2.779,0.395,4.164,0.589
		c1.387,0.138,2.789,0.296,4.155,0.376l2.048,0.128l2.122,0.069l1.062,0.028l1.006-0.009l2.088-0.023
		c5.56-0.103,11.069-0.478,16.484-1.176c10.832-1.408,21.285-3.91,31.18-7.228c4.961-1.628,9.782-3.466,14.45-5.488
		c4.682-1.985,9.211-4.15,13.604-6.423c4.381-2.296,8.64-4.675,12.704-7.227c4.093-2.504,7.994-5.175,11.762-7.887
		c7.52-5.458,14.318-11.355,20.387-17.46c12.149-12.222,21.247-25.355,27.497-37.898c1.597-3.121,2.963-6.234,4.214-9.269
		c0.607-1.521,1.233-3.011,1.756-4.503c0.271-0.745,0.539-1.482,0.806-2.213c0.243-0.736,0.482-1.466,0.725-2.188
		c1.893-5.792,3.182-11.268,4.131-16.267c0.941-5.001,1.389-9.542,1.716-13.51c0.341-3.966,0.342-7.363,0.374-10.123
		c-0.171-3.652-0.808-5.892-1.229-7.658c-0.061-1.438,0.969-0.839,0.969-0.839L324.58,338.685z"/>
</g>
</svg>
