<?xml version="1.0" encoding="UTF-8" standalone="no"?>
<svg width="800px" height="800px" viewBox="0 0 800 800" version="1.1" xmlns="http://www.w3.org/2000/svg" xmlns:xlink="http://www.w3.org/1999/xlink">
    <!-- Generator: Sketch 40.3 (33839) - http://www.bohemiancoding.com/sketch -->
    <title>11.10 icon-1</title>
    <desc>Created with Sketch.</desc>
    <defs></defs>
    <g id="Page-1" stroke="none" stroke-width="1" fill="none" fill-rule="evenodd">
        <g id="11.10-icon-1">
            <g id="try" transform="translate(157.000000, 45.000000)">
                <g id="Group-5">
                    <g id="Page-1">
                        <g id="Group-5">
                            <circle id="Oval-3" stroke="#2D527C" stroke-width="40" cx="220" cy="120" r="120"></circle>
                            <g id="Group-3" transform="translate(0.000000, 282.000000)" stroke="#2D527C" stroke-width="40" fill="#CEE8FA">
                                <path d="M219.49873,103.963967 L141.383694,1.13686838e-13 C58.4892861,25.8284845 0,88.2598965 0,161.220879 L0,366.977456 L219.49873,366.977456 L219.49873,103.963967 L219.49873,103.963967 Z" id="Combined-Shape"></path>
                                <path d="M438.997461,103.963967 L360.882424,1.13686838e-13 C277.988016,25.8284845 219.49873,88.2598965 219.49873,161.220879 L219.49873,366.977456 L438.997461,366.977456 L438.997461,103.963967 L438.997461,103.963967 Z" id="Combined-Shape" transform="translate(329.248095, 183.488728) scale(-1, 1) translate(-329.248095, -183.488728) "></path>
                            </g>
                            <g id="Group-4" transform="translate(500.877187, 674.989510) rotate(-45.000000) translate(-500.877187, -674.989510) translate(461.877187, 589.489510)" fill="#2D527C">
                                <path d="M5.87077385,44.0144482 C5.87077385,39.5960996 9.45239146,36.0143204 13.8701585,36.0143204 L64.0519109,36.0143204 C68.469849,36.0143204 72.0512955,39.5861243 72.0512955,44.0144482 L72.0512955,160.272257 C72.0512955,164.690606 68.4696779,168.272385 64.0519109,168.272385 L13.8701585,168.272385 C9.45222035,168.272385 5.87077385,164.700581 5.87077385,160.272257 L5.87077385,44.0144482 Z M30.6765066,70.0778418 C30.6765066,65.6584762 34.2665535,62.0758726 38.6825165,62.0758726 L39.2156272,62.0758726 C43.6372243,62.0758726 47.2216371,65.6550547 47.2216371,70.0778418 L47.2216371,131.224441 C47.2216371,135.643807 43.6315902,139.22641 39.2156272,139.22641 L38.6825165,139.22641 C34.2609194,139.22641 30.6765066,135.647228 30.6765066,131.224441 L30.6765066,70.0778418 Z" id="Combined-Shape" transform="translate(38.961035, 102.143353) rotate(5.000000) translate(-38.961035, -102.143353) "></path>
                            </g>
                        </g>
                    </g>
                </g>
            </g>
            <g id="Group" transform="translate(484.000000, 532.000000)" stroke="#2D527C">
                <circle id="Oval-5" stroke-width="35" fill="#FFFFFF" cx="94.5" cy="94.5" r="94.5"></circle>
                <circle id="Oval-2" stroke-width="25" fill="#CEE8FA" cx="94.5" cy="94.5" r="48.5"></circle>
            </g>
        </g>
    </g>
</svg>