<svg id="圖層_1" data-name="圖層 1" xmlns="http://www.w3.org/2000/svg" viewBox="0 0 738.9 157.5"><defs><style>.cls-1{fill:#009e9c;}.cls-2{fill:#008fc7;}</style></defs><title>fbLOGO</title><path class="cls-1" d="M139.6,76.8h0s0,.4,1.3,1.4c8.3,6.7,12.6,13.1,12.6,26.2-.1,16.3-14.2,28.2-30.4,28.2v22.6c28.1,0,53.6-20,53.6-48.5a50.5,50.5,0,0,0-9.7-30,36.2,36.2,0,0,0,3-4.3c1.7-3,2-6.7,2-19V.1H100V42.5H77V65.8h46.4V23.9h25.9V60c.1,0,1.1,10.1-9.7,16.8" transform="translate(-27.3 0)"/><path class="cls-2" d="M77.3,0H70.6c-12.2.3-25,4.2-33.5,13.8-9,10.2-9.8,19.3-9.8,34.3v107h73.1v-42h23.1V89.5H77.1v42.3H50.6V43.1S48.9,23.8,72.1,23.3l5.3-.2Z" transform="translate(-27.3 0)"/><path d="M314.6,88.1v18.1l-71.4.1V81.4H306c9.1,0,8.6,6.7,8.6,6.7m-13.9,9.7V90.2H256.1v7.6Z" transform="translate(-27.3 0)"/><path d="M229.8,155.1V111.4h88.6a10.57,10.57,0,0,1,4.3,1.3,9.71,9.71,0,0,1,5.6,8.4v34.1H313.4v-3H244.5v3l-14.7-.1m83.7-27.9v-5.9H285.9v5.9h27.6m-41.2,0v-5.9H244.7v5.9h27.6m41.2,15.2v-5.9H285.9v5.9h27.6m-41.2.1v-5.9H244.7v5.9Z" transform="translate(-27.3 0)"/><rect x="215.8" y="67.3" width="71.5" height="9.3"/><path d="M224.3,79V50.3h47.3V42.9H286v6.9h37.4s9.6.7,9.6,8.7V78.9H320V62.5H238.2V78.9H224.3Z" transform="translate(-27.3 0)"/><path d="M466.8,85l9.1-29.9c1.3-5-3.2-9.7-7.9-9.7H430.1V155.5h13.8V135.6s4.1,6.1,6.3,9.2c4.4.2,7.1-1.1,10.9-2.8,9-4.3,15.2-13.6,16.5-23.1A47.62,47.62,0,0,0,466.8,85m-3.1,35.1c-1.9,5.1-6.8,10.1-12,11.6-2.8.6-4.6,1.1-8.1.3V59.1h17.6c-2.6,9.5-6,19.4-8.9,28.8.9,1.7,3,3.3,4,5.2C461.5,100.9,466.4,109.9,463.7,120.1Z" transform="translate(-27.3 0)"/><path d="M425.3,94.2V80H405.5V69.2h19.3V55.5H405.5V42.6h-15V55.5H368v14h22.5V80.1H368V94h22.5v10.4H368.3v14.2h21.6c-.8,16-13.5,26-13.5,26l8.2,10.9c20.1-11.2,21-36.8,21-36.8h19.6V104.4H405.4V94.2Z" transform="translate(-27.3 0)"/><polygon points="676.8 57.9 635.4 57.9 635.4 66.4 731.8 66.4 731.8 57.9 690.1 57.9 690.1 53.8 736 53.8 736 45.4 690.1 45.4 690.1 41.9 676.8 41.9 676.8 45.4 631.5 45.4 631.5 53.8 676.8 53.8 676.8 57.9"/><path d="M764.4,70.9c-1.5-1.1-5.1-1-5.1-1H659.9v8.5h92a4.77,4.77,0,0,1,2.6.6c.9.7.7,2.3.7,2.3v8.5h11V74.5A4.93,4.93,0,0,0,764.4,70.9Z" transform="translate(-27.3 0)"/><polygon points="632.6 95.3 632.6 103.6 730.2 103.6 730.2 95.3 690.1 95.3 690.1 91.1 719.5 91.1 719.5 82.5 642.6 82.5 642.6 91.1 676.8 91.1 676.8 95.3 632.6 95.3"/><path d="M657.1,116.6h82.3v6.2H711v8.9h28.3v11.5c0,4.1-8.2,4.6-13.2,4.3l5.1,10c4.8,0,14.8-1,19.7-6.1,2.5-2.6,1.8-8,1.8-19.7h10v-8.9h-10v-6.2h13.5v-8.7H657.1Z" transform="translate(-27.3 0)"/><path d="M701.8,119.9H664.5v31.8h11.3v-2.9h18.7v2.9h11.3V124s.2-2.2-1.1-3.3a4.83,4.83,0,0,0-2.9-.8m-7.3,12v8.3H675.7V128.9h16.4a4.35,4.35,0,0,1,2,1.1A3.38,3.38,0,0,1,694.5,131.9Z" transform="translate(-27.3 0)"/><polygon points="690.5 133.6 682.3 140.2 691 151.2 699.2 144.6 690.5 133.6"/><path d="M565.7,94.1a145.51,145.51,0,0,1-5.5,14c-13.3,26.8-31.7,39.4-43.3,46.7L506.6,144a92.32,92.32,0,0,0,23.5-17.3c19.2-19.3,28.7-44.9,28.7-76.9V43.9h14.8s-.2,3.5-.4,5.9c-.2,3.9-.3,10.2-.2,10.5.7,10.8,1.8,19,3.8,25.3q10.2,32.85,48.7,60.1l-12.3,9.5c-6-5-11.2-9.5-15.4-13.3Q573.8,118.5,565.7,94.1Z" transform="translate(-27.3 0)"/></svg>