<?xml version="1.0" encoding="utf-8"?>
<!-- Generator: Adobe Illustrator 16.0.0, SVG Export Plug-In . SVG Version: 6.00 Build 0)  -->
<!DOCTYPE svg PUBLIC "-//W3C//DTD SVG 1.1//EN" "http://www.w3.org/Graphics/SVG/1.1/DTD/svg11.dtd">
<svg version="1.1" id="Layer_1" xmlns="http://www.w3.org/2000/svg" xmlns:xlink="http://www.w3.org/1999/xlink" x="0px" y="0px"
	 width="375px" height="667px" viewBox="0 0 375 667" enable-background="new 0 0 375 667" xml:space="preserve">
<g>
	<path fill="#FFFFFF" d="M64.26,249.469c0-15.711,5.059-31.658,15.143-47.805c10.117-16.114,24.823-29.48,44.187-40.066
		c19.363-10.586,41.941-15.879,67.737-15.879c23.986,0,45.157,4.422,63.551,13.266c18.358,8.844,32.528,20.904,42.545,36.114
		c10.018,15.242,15.009,31.758,15.009,49.647c0,14.07-2.85,26.364-8.544,36.951c-5.694,10.62-12.494,19.765-20.367,27.437
		c-7.839,7.704-21.977,20.636-42.311,38.86c-5.596,5.092-10.118,9.615-13.534,13.501c-3.384,3.885-5.896,7.438-7.57,10.651
		c-1.642,3.252-2.914,6.468-3.817,9.717c-0.94,3.216-2.28,8.876-4.121,16.982c-3.149,17.219-12.965,25.829-29.516,25.829
		c-8.608,0-15.847-2.848-21.708-8.475c-5.896-5.597-8.811-13.972-8.811-25.06c0-13.869,2.143-25.896,6.465-36.113
		c4.289-10.15,9.982-19.096,17.119-26.8c7.104-7.671,16.683-16.816,28.743-27.402c10.619-9.246,18.257-16.248,22.98-20.971
		c4.724-4.724,8.709-9.984,11.927-15.745c3.216-5.796,4.823-12.094,4.823-18.862c0-13.231-4.924-24.421-14.772-33.499
		c-9.851-9.112-22.547-13.668-38.091-13.668c-18.189,0-31.591,4.589-40.2,13.768c-8.575,9.179-15.878,22.714-21.841,40.57
		c-5.596,18.692-16.282,28.072-31.993,28.072c-9.279,0-17.118-3.284-23.483-9.815C67.477,264.109,64.26,257.074,64.26,249.469z
		 M185.397,521.457c-10.117,0-18.927-3.282-26.466-9.815c-7.504-6.532-11.29-15.678-11.29-27.437
		c0-10.385,3.652-19.196,10.955-26.298c7.271-7.104,16.182-10.688,26.801-10.688c10.386,0,19.195,3.585,26.298,10.688
		c7.102,7.102,10.652,15.913,10.652,26.298c0,11.591-3.718,20.703-11.155,27.336C203.721,518.14,195.146,521.457,185.397,521.457z"
		/>
</g>
</svg>
